<?xml version="1.0" encoding="utf-8"?>
<!-- Generator: Adobe Illustrator 17.0.2, SVG Export Plug-In . SVG Version: 6.00 Build 0)  -->
<!DOCTYPE svg PUBLIC "-//W3C//DTD SVG 1.1//EN" "http://www.w3.org/Graphics/SVG/1.1/DTD/svg11.dtd">
<svg version="1.1" id="Слой_1" xmlns="http://www.w3.org/2000/svg" xmlns:xlink="http://www.w3.org/1999/xlink" x="0px" y="0px"
	 width="200px" height="200px" viewBox="0 0 200 200" enable-background="new 0 0 200 200" xml:space="preserve">
<g>
	<g>
		<g>
			<g>
				<g>
					<circle cx="100" cy="100" r="100"/>
				</g>
			</g>
			<g>
				<defs>
					<circle id="SVGID_1_" cx="100" cy="100" r="100"/>
				</defs>
				<clipPath id="SVGID_2_">
					<use xlink:href="#SVGID_1_"  overflow="visible"/>
				</clipPath>
			</g>
		</g>
	</g>
	<g>
		<path stroke="#FFFFFF" stroke-width="6" stroke-miterlimit="10" d="M169.306,128.892c0,4.518-3.387,8.181-7.564,8.181H40.718
			c-4.177,0-7.564-3.663-7.564-8.181V58.327c0-4.518,3.387-8.181,7.564-8.181h121.024c4.177,0,7.564,3.663,7.564,8.181V128.892z"/>
		<g>
			<g>
				<path fill="#FFFFFF" d="M49.277,83.876h7.304v0.43h0.144v0.86h0.143v0.859h0.143v1.003h0.143v0.859h0.143v0.86h0.144v0.859
					h0.143v1.002h0.143v0.86h0.143v0.859h0.143v0.86h0.144v1.002H58.3v0.86h0.143v0.859h0.143v0.86h0.143v1.002h0.143v0.86h0.144
					v0.859h0.143v0.286h0.143v-0.572h0.143v-0.572h0.143v-0.716h0.144v-0.574h0.143v-0.572h0.143V96.05h0.143v-0.574h0.143v-0.572
					h0.143v-0.572h0.144v-0.716h0.143v-0.574h0.143V92.47h0.143v-0.572h0.143v-0.716h0.144v-0.574h0.143v-0.572h0.143v-0.716h0.143
					v-0.572h0.143v-0.574h0.144V87.6h0.143v-0.716h0.143v-0.572h0.143v-0.574h0.143v-0.572h0.143V84.45h0.144v-0.574h7.447v0.43
					h0.143v0.574h0.144v0.572h0.143v0.716h0.143v0.572h0.143v0.574h0.143v0.716h0.144v0.572h0.143v0.572h0.143v0.574h0.143v0.716
					h0.143v0.572h0.144v0.572h0.143v0.574h0.143V92.9h0.143v0.572h0.143v0.574h0.143v0.572h0.144v0.716h0.143v0.572h0.143v0.574
					h0.143v0.572h0.143v0.716h0.144v0.572h0.143v0.574h0.143v0.572h0.143v0.286h0.143v-0.859h0.143v-0.86h0.144v-0.859h0.143v-1.003
					h0.143v-0.859h0.143v-0.86h0.143v-0.859H75.2v-1.002h0.143v-0.86h0.143v-0.859h0.143v-0.86h0.143v-1.002h0.144v-0.86h0.143
					v-0.859h0.143v-0.86h0.143v-1.002h0.143v-0.86h0.143v-0.716h7.305v0.716h-0.143v0.86H83.65v0.716h-0.144v0.716h-0.143v0.859
					H83.22v0.716h-0.143v0.716h-0.143v0.86H82.79v0.716h-0.143v0.716h-0.143v0.859h-0.143v0.716h-0.143v0.86h-0.143v0.716h-0.144
					v0.716h-0.143v0.859h-0.143v0.716h-0.143v0.716h-0.143v0.86h-0.144v0.716h-0.143v0.716h-0.143v0.859h-0.143v0.716h-0.143v0.716
					h-0.144v0.86h-0.143v0.716h-0.143v0.859h-0.143v0.716h-0.143v0.716h-0.143v0.86h-0.144v0.716h-0.143v0.716h-0.143v0.859H79.21
					v0.716h-0.143v0.716h-0.144v0.86H78.78v0.716h-0.143v0.859h-0.143v0.144h-7.448v-0.144h-0.143v-0.429H70.76v-0.574h-0.143
					v-0.572h-0.144v-0.716H70.33v-0.572h-0.143v-0.574h-0.143v-0.572h-0.143v-0.574h-0.143v-0.716h-0.144v-0.572h-0.143v-0.572
					h-0.143v-0.574h-0.143v-0.716h-0.143v-0.572h-0.144v-0.572h-0.143v-0.574h-0.143v-0.716h-0.143v-0.572h-0.143v-0.572h-0.143
					v-0.574h-0.144v-0.716h-0.143v-0.572h-0.143v-0.574h-0.143v-0.572h-0.143v-0.716h-0.144v-0.572h-0.143v-0.574h-0.143v-0.572
					h-0.143v-0.716H66.75v-0.572h-0.144v0.286h-0.143v0.572H66.32v0.574h-0.143v0.716h-0.143v0.572h-0.143v0.572h-0.144v0.574
					h-0.143v0.716h-0.143v0.572h-0.143v0.572h-0.143v0.574h-0.144v0.716h-0.143v0.572h-0.143v0.574h-0.143v0.572h-0.143v0.716
					h-0.144v0.572h-0.143v0.574h-0.143v0.572h-0.143v0.716h-0.143v0.572h-0.143v0.574h-0.144v0.572h-0.143v0.716h-0.143v0.572
					h-0.143v0.574h-0.143v0.572h-0.144v0.716h-0.143v0.572h-0.143v0.574H62.31v0.286h-7.591v-0.572h-0.143v-0.716h-0.143v-0.86
					h-0.144v-0.716h-0.143v-0.716h-0.143v-0.859H53.86v-0.716h-0.143v-0.716h-0.143v-0.716H53.43v-0.86h-0.143v-0.716h-0.143v-0.716
					h-0.143v-0.859h-0.143v-0.716h-0.144v-0.716h-0.143v-0.86h-0.143v-0.716h-0.143v-0.716h-0.143v-0.859h-0.143v-0.716h-0.144
					v-0.716h-0.143v-0.716h-0.143v-0.86h-0.143v-0.716h-0.143v-0.716h-0.144v-0.859h-0.143V92.9h-0.143v-0.716h-0.143v-0.86h-0.143
					v-0.716h-0.144v-0.716h-0.143v-0.859h-0.143v-0.716h-0.143V87.6H49.85v-0.86h-0.143v-0.716h-0.144v-0.716H49.42v-0.716h-0.143
					V83.876z"/>
			</g>
			<g>
				<path fill="#B40B19" d="M83.9,83.876h7.304v0.43h0.144v0.86h0.143v0.859h0.143v1.003h0.143v0.859h0.143v0.86h0.144v0.859h0.143
					v1.002h0.143v0.86h0.143v0.859h0.143v0.86h0.144v1.002h0.143v0.86h0.143v0.859h0.143v0.86h0.143v1.002h0.143v0.86h0.144v0.859
					h0.143v0.286h0.143v-0.572h0.143v-0.572h0.143v-0.716h0.144v-0.574h0.143v-0.572h0.143V96.05h0.143v-0.574h0.143v-0.572h0.143
					v-0.572h0.144v-0.716h0.143v-0.574h0.143V92.47h0.143v-0.572h0.143v-0.716h0.144v-0.574h0.143v-0.572h0.143v-0.716h0.143v-0.572
					h0.143v-0.574h0.144V87.6h0.143v-0.716h0.143v-0.572h0.143v-0.574h0.143v-0.572h0.143V84.45h0.144v-0.574h7.447v0.43h0.143
					v0.574h0.144v0.572h0.143v0.716h0.143v0.572h0.143v0.574h0.143v0.716h0.144v0.572h0.143v0.572h0.143v0.574h0.143v0.716h0.143
					v0.572h0.144v0.572h0.143v0.574h0.143V92.9h0.143v0.572h0.143v0.574h0.143v0.572h0.144v0.716h0.143v0.572h0.143v0.574h0.143
					v0.572h0.143v0.716h0.144v0.572h0.143v0.574h0.143v0.572h0.143v0.286h0.143v-0.859h0.143v-0.86h0.144v-0.859h0.143v-1.003h0.143
					v-0.859h0.143v-0.86h0.143v-0.859h0.144v-1.002h0.143v-0.86h0.143v-0.859h0.143v-0.86h0.143v-1.002h0.144v-0.86h0.143v-0.859
					h0.143v-0.86h0.143v-1.002h0.143v-0.86h0.143v-0.716h7.305v0.716h-0.143v0.86h-0.143v0.716h-0.144v0.716h-0.143v0.859h-0.143
					v0.716H117.7v0.716h-0.143v0.86h-0.144v0.716h-0.143v0.716h-0.143v0.859h-0.143v0.716h-0.143v0.86h-0.143v0.716h-0.144v0.716
					h-0.143v0.859h-0.143v0.716h-0.143v0.716h-0.143v0.86h-0.144v0.716h-0.143v0.716h-0.143v0.859h-0.143v0.716h-0.143v0.716h-0.144
					v0.86h-0.143v0.716h-0.143v0.859h-0.143v0.716h-0.143v0.716h-0.143v0.86h-0.144v0.716h-0.143v0.716h-0.143v0.859h-0.143v0.716
					h-0.143v0.716h-0.144v0.86h-0.143v0.716h-0.143v0.859h-0.143v0.144h-7.448v-0.144h-0.143v-0.429h-0.143v-0.574h-0.143v-0.572
					h-0.144v-0.716h-0.143v-0.572h-0.143v-0.574h-0.143v-0.572h-0.143v-0.574h-0.143v-0.716h-0.144v-0.572h-0.143v-0.572h-0.143
					v-0.574h-0.143v-0.716h-0.143v-0.572h-0.144v-0.572h-0.143v-0.574h-0.143v-0.716h-0.143v-0.572h-0.143v-0.572h-0.143v-0.574
					h-0.144v-0.716h-0.143v-0.572h-0.143v-0.574h-0.143v-0.572h-0.143v-0.716h-0.144v-0.572h-0.143v-0.574h-0.143v-0.572h-0.143
					v-0.716h-0.143v-0.572h-0.144v0.286h-0.143v0.572h-0.143v0.574H100.8v0.716h-0.143v0.572h-0.143v0.572h-0.144v0.574h-0.143
					v0.716h-0.143v0.572h-0.143v0.572h-0.143v0.574h-0.144v0.716h-0.143v0.572h-0.143v0.574h-0.143v0.572h-0.143v0.716h-0.144v0.572
					h-0.143v0.574h-0.143v0.572h-0.143v0.716h-0.143v0.572h-0.143v0.574h-0.144v0.572h-0.143v0.716h-0.143v0.572H97.65v0.574h-0.143
					v0.572h-0.144v0.716H97.22v0.572h-0.143v0.574h-0.143v0.286h-7.591v-0.572H89.2v-0.716h-0.143v-0.86h-0.144v-0.716H88.77v-0.716
					h-0.143v-0.859h-0.143v-0.716H88.34v-0.716h-0.143v-0.716h-0.144v-0.86H87.91v-0.716h-0.143v-0.716h-0.143v-0.859h-0.143v-0.716
					h-0.144v-0.716h-0.143v-0.86h-0.143v-0.716h-0.143v-0.716h-0.143v-0.859h-0.143v-0.716h-0.144v-0.716h-0.143v-0.716h-0.143
					v-0.86h-0.143v-0.716h-0.143v-0.716h-0.144v-0.859h-0.143V92.9h-0.143v-0.716h-0.143v-0.86H85.19v-0.716h-0.144v-0.716h-0.143
					v-0.859H84.76v-0.716h-0.143V87.6h-0.143v-0.86H84.33v-0.716h-0.144v-0.716h-0.143v-0.716H83.9V83.876z"/>
			</g>
			<g>
				<path fill="#FFFFFF" d="M118.524,83.876h7.304v0.43h0.144v0.86h0.143v0.859h0.143v1.003h0.143v0.859h0.143v0.86h0.144v0.859
					h0.143v1.002h0.143v0.86h0.143v0.859h0.143v0.86h0.144v1.002h0.143v0.86h0.143v0.859h0.143v0.86h0.143v1.002h0.143v0.86h0.144
					v0.859h0.143v0.286h0.143v-0.572h0.143v-0.572h0.143v-0.716h0.144v-0.574h0.143v-0.572h0.143V96.05h0.143v-0.574h0.143v-0.572
					h0.143v-0.572h0.144v-0.716h0.143v-0.574h0.143V92.47h0.143v-0.572h0.143v-0.716h0.144v-0.574h0.143v-0.572h0.143v-0.716h0.143
					v-0.572h0.143v-0.574h0.144V87.6h0.143v-0.716h0.143v-0.572h0.143v-0.574h0.143v-0.572h0.143V84.45h0.144v-0.574h7.447v0.43
					h0.143v0.574h0.144v0.572h0.143v0.716h0.143v0.572h0.143v0.574h0.143v0.716h0.144v0.572h0.143v0.572h0.143v0.574h0.143v0.716
					h0.143v0.572h0.144v0.572h0.143v0.574h0.143V92.9h0.143v0.572h0.143v0.574h0.143v0.572h0.144v0.716h0.143v0.572h0.143v0.574
					h0.143v0.572h0.143v0.716h0.144v0.572h0.143v0.574h0.143v0.572h0.143v0.286h0.143v-0.859h0.143v-0.86h0.144v-0.859h0.143v-1.003
					h0.143v-0.859h0.143v-0.86h0.143v-0.859h0.144v-1.002h0.143v-0.86h0.143v-0.859h0.143v-0.86h0.143v-1.002h0.144v-0.86h0.143
					v-0.859h0.143v-0.86h0.143v-1.002h0.143v-0.86h0.143v-0.716h7.305v0.716h-0.143v0.86h-0.143v0.716h-0.144v0.716h-0.143v0.859
					h-0.143v0.716h-0.143v0.716h-0.143v0.86h-0.144v0.716h-0.143v0.716h-0.143v0.859h-0.143v0.716h-0.143v0.86h-0.143v0.716h-0.144
					v0.716h-0.143v0.859h-0.143v0.716h-0.143v0.716h-0.143v0.86h-0.144v0.716h-0.143v0.716h-0.143v0.859h-0.143v0.716h-0.143v0.716
					h-0.144v0.86h-0.143v0.716h-0.143v0.859h-0.143v0.716h-0.143v0.716h-0.143v0.86h-0.144v0.716h-0.143v0.716H148.6v0.859h-0.143
					v0.716h-0.143v0.716h-0.144v0.86h-0.143v0.716h-0.143v0.859h-0.143v0.144h-7.448v-0.144h-0.143v-0.429h-0.143v-0.574h-0.143
					v-0.572h-0.144v-0.716h-0.143v-0.572h-0.143v-0.574h-0.143v-0.572h-0.143v-0.574h-0.143v-0.716h-0.144v-0.572h-0.143v-0.572
					h-0.143v-0.574h-0.143v-0.716h-0.143v-0.572h-0.144v-0.572h-0.143v-0.574h-0.143v-0.716h-0.143v-0.572h-0.143v-0.572h-0.143
					v-0.574h-0.144v-0.716h-0.143v-0.572h-0.143v-0.574h-0.143v-0.572h-0.143v-0.716h-0.144v-0.572h-0.143v-0.574h-0.143v-0.572
					h-0.143v-0.716h-0.143v-0.572h-0.144v0.286h-0.143v0.572h-0.143v0.574h-0.143v0.716h-0.143v0.572h-0.143v0.572h-0.144v0.574
					h-0.143v0.716h-0.143v0.572h-0.143v0.572h-0.143v0.574h-0.144v0.716h-0.143v0.572h-0.143v0.574h-0.143v0.572h-0.143v0.716
					h-0.144v0.572h-0.143v0.574h-0.143v0.572h-0.143v0.716h-0.143v0.572h-0.143v0.574h-0.144v0.572h-0.143v0.716h-0.143v0.572
					h-0.143v0.574h-0.143v0.572h-0.144v0.716h-0.143v0.572H131.7v0.574h-0.143v0.286h-7.591v-0.572h-0.143v-0.716h-0.143v-0.86
					h-0.144v-0.716h-0.143v-0.716h-0.143v-0.859h-0.143v-0.716h-0.143v-0.716h-0.143v-0.716h-0.144v-0.86h-0.143v-0.716h-0.143
					v-0.716h-0.143v-0.859h-0.143v-0.716h-0.144v-0.716h-0.143v-0.86h-0.143v-0.716h-0.143v-0.716h-0.143v-0.859h-0.143v-0.716
					h-0.144v-0.716h-0.143v-0.716h-0.143v-0.86h-0.143v-0.716h-0.143v-0.716h-0.144v-0.859h-0.143V92.9h-0.143v-0.716h-0.143v-0.86
					h-0.143v-0.716h-0.144v-0.716h-0.143v-0.859h-0.143v-0.716h-0.143V87.6h-0.143v-0.86h-0.143v-0.716h-0.144v-0.716h-0.143v-0.716
					h-0.143V83.876z"/>
			</g>
		</g>
		
			<line stroke="#FFFFFF" stroke-width="6" stroke-linecap="round" stroke-miterlimit="10" x1="161.73" y1="151.073" x2="40.73" y2="151.073"/>
	</g>
</g>
</svg>
