<?xml version="1.0" encoding="utf-8"?>
<!-- Generator: Adobe Illustrator 17.0.2, SVG Export Plug-In . SVG Version: 6.00 Build 0)  -->
<!DOCTYPE svg PUBLIC "-//W3C//DTD SVG 1.1//EN" "http://www.w3.org/Graphics/SVG/1.1/DTD/svg11.dtd">
<svg version="1.1" id="Слой_1" xmlns="http://www.w3.org/2000/svg" xmlns:xlink="http://www.w3.org/1999/xlink" x="0px" y="0px"
	 width="200px" height="200px" viewBox="0 0 200 200" enable-background="new 0 0 200 200" xml:space="preserve">
<g>
	<g>
		<g>
			<defs>
				<circle id="SVGID_1_" cx="-7309.325" cy="-3766.391" r="100"/>
			</defs>
			<use xlink:href="#SVGID_1_"  overflow="visible"/>
			<clipPath id="SVGID_2_">
				<use xlink:href="#SVGID_1_"  overflow="visible"/>
			</clipPath>
		</g>
	</g>
	<g>
		<g>
			<g>
				<path fill="#FFFFFF" d="M-7237.882-3722.83c-7.464,0-14.945,0-22.886,0c-1.615-15.096-5.165-29.444-14.436-41.81
					C-7258.202-3770.752-7236.857-3749.989-7237.882-3722.83z"/>
				<path fill="#FFFFFF" d="M-7382.339-3723.342c7.464,0,14.945,0,22.886,0c1.615-15.096,5.165-29.444,14.436-41.81
					C-7362.02-3771.264-7383.365-3750.501-7382.339-3723.342z"/>
			</g>
			<g>
				<path fill="#FFFFFF" d="M-7300.834-3723.228c10.367,0,20.807,0,31.364,0c-0.231-17.276-4.857-32.026-16.653-43.841
					c-10.348-10.365-24.436-13.09-36.674-7.753c-17.162,7.485-30.579,32.448-27.518,51.594c10.179,0,20.366,0,30.601,0H-7300.834z"
					/>
				<path fill="#B40B19" d="M-7300.033-3733.646c2.255,0,11.143,0.231,12.777,0c8.148,0-0.18-8.466-1.372-10.135
					c-5.517-7.732-12.706-16.744-18.333-24.398c-2.368-3.22-4.509-3.413-6.947-0.139c-6.052,8.128-13.869,18.646-19.797,26.863
					c-4.604,4.604-2.963,7.515,0.847,7.515l13.197,0.294c0,0-0.053,5.5-0.053,10.418c6.271,0,13.311,0,19.628,0
					C-7300.085-3727.403-7300.033-3729.571-7300.033-3733.646z"/>
			</g>
			<g>
				<g>
					<path fill="#FFFFFF" d="M-7310.315-3829.687c12.837-0.129,22.989,9.775,23.245,22.678c0.252,12.746-9.795,23.185-22.53,23.406
						c-13.105,0.228-23.508-9.932-23.556-23.005C-7333.203-3819.405-7323.155-3829.557-7310.315-3829.687z"/>
				</g>
			</g>
			<path fill="#FFFFFF" d="M-7270.072-3807.597c-4.158,0.042-7.935,1.416-10.971,3.697c-0.549,6.192-3.03,11.98-7.167,16.65
				c0.978,9.498,8.894,16.623,18.708,16.452c10.168-0.177,18.192-8.512,17.99-18.69
				C-7251.714-3799.792-7259.821-3807.701-7270.072-3807.597z"/>
		</g>
		<path fill="#FFFFFF" d="M-7339.17-3803.918c-3.116-2.35-7.018-3.722-11.306-3.679c-10.253,0.103-18.276,8.21-18.239,18.429
			c0.039,10.439,8.345,18.552,18.81,18.37c9.401-0.164,16.954-7.305,17.883-16.425
			C-7336-3791.722-7338.587-3797.488-7339.17-3803.918z"/>
	</g>
</g>
<g>
	<g>
		<g>
			<defs>
				<circle id="SVGID_3_" cx="-7309.325" cy="-3766.391" r="100"/>
			</defs>
			<use xlink:href="#SVGID_3_"  overflow="visible"/>
			<clipPath id="SVGID_4_">
				<use xlink:href="#SVGID_3_"  overflow="visible"/>
			</clipPath>
		</g>
	</g>
	<g>
		<g>
			<g>
				<path fill="#FFFFFF" d="M-7237.882-3722.83c-7.464,0-14.945,0-22.886,0c-1.615-15.096-5.165-29.444-14.436-41.81
					C-7258.202-3770.752-7236.857-3749.989-7237.882-3722.83z"/>
				<path fill="#FFFFFF" d="M-7382.339-3723.342c7.464,0,14.945,0,22.886,0c1.615-15.096,5.165-29.444,14.436-41.81
					C-7362.02-3771.264-7383.365-3750.501-7382.339-3723.342z"/>
			</g>
			<g>
				<path fill="#FFFFFF" d="M-7300.834-3723.228c10.367,0,20.807,0,31.364,0c-0.231-17.276-4.857-32.026-16.653-43.841
					c-10.348-10.365-24.436-13.09-36.674-7.753c-17.162,7.485-30.579,32.448-27.518,51.594c10.179,0,20.366,0,30.601,0H-7300.834z"
					/>
				<path fill="#B40B19" d="M-7300.033-3733.646c2.255,0,11.143,0.231,12.777,0c8.148,0-0.18-8.466-1.372-10.135
					c-5.517-7.732-12.706-16.744-18.333-24.398c-2.368-3.22-4.509-3.413-6.947-0.139c-6.052,8.128-13.869,18.646-19.797,26.863
					c-4.604,4.604-2.963,7.515,0.847,7.515l13.197,0.294c0,0-0.053,5.5-0.053,10.418c6.271,0,13.311,0,19.628,0
					C-7300.085-3727.403-7300.033-3729.571-7300.033-3733.646z"/>
			</g>
			<g>
				<g>
					<path fill="#FFFFFF" d="M-7310.315-3829.687c12.837-0.129,22.989,9.775,23.245,22.678c0.252,12.746-9.795,23.185-22.53,23.406
						c-13.105,0.228-23.508-9.932-23.556-23.005C-7333.203-3819.405-7323.155-3829.557-7310.315-3829.687z"/>
				</g>
			</g>
			<path fill="#FFFFFF" d="M-7270.072-3807.597c-4.158,0.042-7.935,1.416-10.971,3.697c-0.549,6.192-3.03,11.98-7.167,16.65
				c0.978,9.498,8.894,16.623,18.708,16.452c10.168-0.177,18.192-8.512,17.99-18.69
				C-7251.714-3799.792-7259.821-3807.701-7270.072-3807.597z"/>
		</g>
		<path fill="#FFFFFF" d="M-7339.17-3803.918c-3.116-2.35-7.018-3.722-11.306-3.679c-10.253,0.103-18.276,8.21-18.239,18.429
			c0.039,10.439,8.345,18.552,18.81,18.37c9.401-0.164,16.954-7.305,17.883-16.425
			C-7336-3791.722-7338.587-3797.488-7339.17-3803.918z"/>
	</g>
</g>
<g>
	<g>
		<g>
			<defs>
				<circle id="SVGID_5_" cx="100" cy="100" r="100"/>
			</defs>
			<use xlink:href="#SVGID_5_"  overflow="visible"/>
			<clipPath id="SVGID_6_">
				<use xlink:href="#SVGID_5_"  overflow="visible"/>
			</clipPath>
		</g>
	</g>
	<g>
		<g>
			<g>
				<path fill="#FFFFFF" d="M171.443,143.562c-7.464,0-14.945,0-22.886,0c-1.615-15.096-5.165-29.444-14.436-41.81
					C151.124,95.64,172.468,116.403,171.443,143.562z"/>
				<path fill="#FFFFFF" d="M26.986,143.049c7.464,0,14.945,0,22.886,0c1.615-15.096,5.165-29.444,14.436-41.81
					C47.305,95.128,25.96,115.891,26.986,143.049z"/>
			</g>
			<g>
				<path fill="#FFFFFF" d="M108.491,143.163c10.367,0,20.807,0,31.364,0c-0.231-17.276-4.857-32.026-16.653-43.841
					c-10.348-10.365-24.436-13.09-36.674-7.753c-17.162,7.485-30.579,32.448-27.518,51.594c10.179,0,20.366,0,30.601,0H108.491z"/>
				<path fill="#B40B19" d="M109.293,132.745c2.255,0,11.143,0.231,12.777,0c8.148,0-0.18-8.465-1.372-10.135
					c-5.517-7.732-12.706-16.744-18.333-24.398c-2.368-3.22-4.509-3.413-6.947-0.139c-6.052,8.128-13.869,18.646-19.797,26.863
					c-4.604,4.604-2.963,7.515,0.846,7.515l13.197,0.294c0,0-0.053,5.5-0.053,10.418c6.272,0,13.311,0,19.628,0
					C109.24,138.989,109.293,136.821,109.293,132.745z"/>
			</g>
			<g>
				<g>
					<path fill="#FFFFFF" d="M99.01,36.705c12.837-0.129,22.989,9.775,23.245,22.678c0.252,12.746-9.795,23.185-22.53,23.406
						c-13.105,0.228-23.508-9.932-23.556-23.005C76.122,46.987,86.17,36.834,99.01,36.705z"/>
				</g>
			</g>
			<path fill="#FFFFFF" d="M139.253,58.794c-4.157,0.042-7.935,1.416-10.97,3.697c-0.549,6.192-3.03,11.98-7.167,16.65
				c0.978,9.498,8.894,16.623,18.708,16.452c10.169-0.177,18.192-8.512,17.991-18.69C157.611,66.599,149.504,58.69,139.253,58.794z"
				/>
		</g>
		<path fill="#FFFFFF" d="M70.155,62.473c-3.116-2.35-7.018-3.723-11.305-3.679c-10.253,0.103-18.277,8.21-18.239,18.429
			c0.038,10.439,8.345,18.552,18.81,18.37c9.402-0.164,16.954-7.305,17.883-16.425C73.325,74.67,70.738,68.903,70.155,62.473z"/>
	</g>
</g>
</svg>
