<?xml version="1.0" encoding="utf-8"?>
<!-- Generator: Adobe Illustrator 17.0.2, SVG Export Plug-In . SVG Version: 6.00 Build 0)  -->
<!DOCTYPE svg PUBLIC "-//W3C//DTD SVG 1.1//EN" "http://www.w3.org/Graphics/SVG/1.1/DTD/svg11.dtd">
<svg version="1.1" id="Слой_1" xmlns="http://www.w3.org/2000/svg" xmlns:xlink="http://www.w3.org/1999/xlink" x="0px" y="0px"
	 width="200px" height="200px" viewBox="0 0 200 200" enable-background="new 0 0 200 200" xml:space="preserve">
<g>
	<g>
		<g>
			<g>
				<defs>
					<circle id="SVGID_1_" cx="100" cy="100" r="100"/>
				</defs>
				<use xlink:href="#SVGID_1_"  overflow="visible"/>
				<clipPath id="SVGID_2_">
					<use xlink:href="#SVGID_1_"  overflow="visible"/>
				</clipPath>
			</g>
		</g>
	</g>
	<g>
		<path fill="#FFFFFF" d="M112.908,77.25c0.528,0.93,3.155,5.693,3.155,5.693l41.248-34.506l-51.469,16.528l3.158,5.46
			c0,0-70.075,38.477-72.103,39.63c0,3.904,0,5.063,0,8.337C38.618,117.413,111.227,78.205,112.908,77.25z"/>
		<path fill="#FFFFFF" d="M49.598,71.162c-2.307,0-4.472-0.01-6.637,0.009c-0.409,0.004-0.548-0.047-0.543-0.524
			c0.017-1.653-0.043-3.307-0.072-4.961c-0.004-0.209-0.001-0.418-0.001-0.716c1.602,0,3.14,0.005,4.679-0.002
			c0.702-0.003,1.404-0.044,2.106-0.039c0.319,0.002,0.403-0.16,0.397-0.421c-0.024-1.077-0.059-2.154-0.081-3.231
			c-0.004-0.209,0.032-0.419,0.049-0.629c0.023-0.298-0.121-0.408-0.412-0.404c-1.606,0.021-3.213,0.038-4.819,0.048
			c-0.548,0.003-1.095-0.019-1.643-0.029c-0.269-0.005-0.414-0.096-0.41-0.41c0.024-1.7,0.058-3.402,0.026-5.102
			c-0.011-0.572,0.278-0.607,0.685-0.607c1.789,0,3.578,0,5.368,0c0.358,0,0.716,0,1.13,0c-0.053-6.227-0.105-12.411-0.157-18.591
			c1.479,0,2.885,0.001,4.292-0.001c0.259,0,0.518-0.026,0.777-0.026c3.642-0.002,7.284-0.02,10.925,0.006
			c2.195,0.015,4.375,0.214,6.455,0.991c2.392,0.894,4.402,2.314,5.789,4.487c0.959,1.502,1.567,3.153,1.764,4.944
			c0.205,1.867,0.152,3.718-0.341,5.535c-0.672,2.477-1.973,4.548-4.065,6.075c-2.185,1.595-4.641,2.459-7.34,2.546
			c-2.481,0.08-4.965,0.073-7.448,0.124c-0.131,0.003-0.37,0.194-0.37,0.298c-0.002,1.389,0.029,2.779,0.055,4.168
			c0.001,0.062,0.028,0.124,0.05,0.22c1.596,0,3.186,0,4.775,0c4.021-0.001,8.041,0.003,12.062-0.009
			c0.416-0.001,0.546,0.167,0.546,0.555c0,1.782,0.008,3.564,0.029,5.345c0.004,0.293-0.132,0.314-0.36,0.312
			c-1.716-0.017-3.433-0.036-5.149-0.035c-1.551,0.001-3.102,0.035-4.654,0.039c-1.562,0.004-3.124-0.01-4.687-0.019
			c-0.701-0.004-1.402,0.003-2.101-0.031c-0.424-0.021-0.478,0.195-0.474,0.537c0.02,1.749,0.029,3.497,0.039,5.246
			c0.004,0.628,0,0.613-0.632,0.615c-2.536,0.007-5.073,0.023-7.609,0.036c-0.603,0.003-1.206-0.006-1.809,0.013
			c-0.334,0.01-0.274-0.224-0.27-0.401c0.021-1.029,0.065-2.058,0.081-3.087C49.61,73.099,49.598,72.161,49.598,71.162z
			 M59.67,54.022c1.598,0,3.093,0.044,4.584-0.012c1.64-0.061,2.973-0.757,3.786-2.229c0.667-1.208,0.769-2.525,0.604-3.883
			c-0.276-2.278-1.697-3.918-3.967-4.171c-0.873-0.097-1.754-0.132-2.633-0.161c-0.793-0.026-1.589-0.006-2.375-0.006
			C59.67,47.102,59.67,50.564,59.67,54.022z"/>
		<rect x="68.08" y="113.062" fill="#FFFFFF" width="26.403" height="42.062"/>
		<rect x="35.877" y="129.918" fill="#FFFFFF" width="26.403" height="25.207"/>
		<rect x="100.858" y="96.54" fill="#B40B19" width="26.403" height="58.585"/>
		<rect x="133.633" y="80.594" fill="#FFFFFF" width="26.41" height="74.531"/>
		<g>
			<path fill="#181713" d="M145.196,54.782"/>
		</g>
	</g>
</g>
</svg>
