<?xml version="1.0" encoding="utf-8"?>
<!-- Generator: Adobe Illustrator 17.0.2, SVG Export Plug-In . SVG Version: 6.00 Build 0)  -->
<!DOCTYPE svg PUBLIC "-//W3C//DTD SVG 1.1//EN" "http://www.w3.org/Graphics/SVG/1.1/DTD/svg11.dtd">
<svg version="1.1" id="Слой_1" xmlns="http://www.w3.org/2000/svg" xmlns:xlink="http://www.w3.org/1999/xlink" x="0px" y="0px"
	 width="200px" height="200px" viewBox="0 0 200 200" enable-background="new 0 0 200 200" xml:space="preserve">
<g>
	<g>
		<g>
			<g>
				<circle cx="100" cy="100" r="100"/>
			</g>
		</g>
	</g>
	<g>
		<circle fill="#B40B19" cx="97.616" cy="95.447" r="29.404"/>
		<g>
			<path fill="#FFFFFF" d="M89.391,86.053h2.825v0.083h0.665v0.083h0.499v0.083h0.332v0.083h0.248v0.083h0.249v0.083h0.167v0.083
				h0.166v0.083h0.167v0.083h0.167v0.083h0.083v0.083h0.166v0.083h0.084v0.083h0.083v0.083h0.167v0.083h0.083v0.083h0.083v0.083
				h0.083v0.083h0.084v0.083h0.083v0.083h0.083v0.083h0.084v0.166h0.083v0.083h0.083v0.083h0.083v0.166h0.084v0.083h0.083v0.166
				h0.083v0.083h0.084v0.166h0.083v0.166h0.083v0.166h0.083v0.166h0.084v0.249h0.083v0.166h0.083v0.249h0.084v0.248h0.083v0.332
				h0.083v0.415h-0.499v0.083H92.8v-0.083h-0.084v-0.083h-0.083v-0.166H92.55v-0.083h-0.084v-0.083h-0.083v-0.074h-0.083v-0.083
				h-0.083V90.29h-0.167v-0.083h-0.083v-0.083h-0.167v-0.083h-0.166v-0.083h-0.249v-0.083h-0.582v-0.083h-0.416v0.083h-0.582v0.083
				h-0.25v0.083h-0.166v0.083h-0.167v0.083h-0.166v0.083h-0.084v0.083h-0.166v0.083h-0.083v0.083h-0.084v0.083H88.56v0.083h-0.083
				v0.083h-0.084v0.167H88.31v0.083h-0.083v0.083h-0.083v0.166h-0.083v0.166h-0.083v0.166h-0.083v0.249h-0.084v0.166h-0.083v0.332
				h-0.083v0.332h-0.083v0.498H87.48v0.914h-0.083v1.495h0.083v0.914h0.084v0.498h0.083v0.415h0.083v0.249h0.083v0.248h0.084v0.166
				h0.083v0.249h0.083v0.083h0.084v0.166h0.083v0.166h0.083v0.083h0.083v0.083h0.084v0.083h0.083v0.083h0.083v0.083h0.084v0.083
				h0.083v0.083h0.083v0.083h0.167v0.083h0.083v0.083h0.167v0.083h0.166v0.083h0.249v0.083h0.332v0.083h1.329v-0.083h0.415v-0.083
				h0.249v-0.074H92.3v-0.083h0.166v-0.083h0.167v-0.083h0.167v-0.083h0.166v-0.083h0.083V99.18h0.167v-0.083h0.083v-0.083h0.167
				v-0.083h0.083v-0.083h0.167V97.27h-2.077v-0.332h-0.084v-0.248H91.47v-0.335h-0.083v-0.332h-0.084v-0.332H91.22v-0.332h-0.083
				v-0.332h-0.083v-0.332h-0.084V94.36h-0.083v-0.332h-0.083v-0.415h6.729v0.083h0.083v7.31h-0.083v0.083h-0.167v0.083h-0.084v0.083
				H97.2v0.084h-0.084v0.083h-0.166v0.083h-0.084v0.084h-0.083v0.083h-0.166v0.083h-0.084v0.083h-0.166v0.084h-0.084v0.083H96.12
				v0.083h-0.083v0.084H95.87v0.083h-0.082v0.083h-0.167v0.083h-0.166v0.084h-0.084v0.083h-0.166v0.083H95.04v0.084h-0.166v0.083
				h-0.167v0.083h-0.167V103h-0.166v0.084h-0.249v0.083h-0.167v0.083h-0.248v0.084h-0.332v0.083h-0.333v0.083H92.63v0.083h-0.498
				v0.084h-0.997v0.083H89.89v-0.083h-0.915v-0.084H88.56v-0.083h-0.415v-0.083h-0.333v-0.083h-0.248v-0.084h-0.167v-0.083h-0.249
				v-0.083h-0.166V103h-0.167v-0.083h-0.166v-0.083h-0.167v-0.083h-0.083v-0.084h-0.167v-0.083H86.15v-0.083h-0.167v-0.084H85.9
				v-0.083H85.82v-0.083h-0.167v-0.083H85.57v-0.084h-0.083v-0.083h-0.084v-0.083h-0.083v-0.084h-0.083v-0.083h-0.084v-0.083h-0.083
				v-0.083h-0.083v-0.084h-0.083v-0.166h-0.084v-0.084h-0.083v-0.083h-0.083v-0.166h-0.084v-0.084h-0.083v-0.166h-0.083v-0.084
				h-0.082v-0.166h-0.084v-0.167h-0.083v-0.083h-0.083v-0.167h-0.084v-0.166h-0.083V99.76h-0.083V99.51h-0.083v-0.166h-0.084v-0.249
				h-0.083v-0.248h-0.083v-0.249H83.41v-0.249h-0.083v-0.332h-0.083v-0.332h-0.083v-0.415h-0.084v-0.499h-0.083v-0.83h-0.083v-2.16
				h0.083v-0.747h0.083v-0.582h0.084v-0.415h0.083v-0.332h0.083V91.37h0.083v-0.248h0.084v-0.249h0.083v-0.249h0.083v-0.167h0.084
				v-0.249h0.083V90.04h0.083v-0.166h0.083v-0.167h0.084v-0.166h0.083V89.46h0.083v-0.166h0.084v-0.166h0.083v-0.083h0.083v-0.167
				h0.083v-0.083h0.084V88.63h0.083v-0.083h0.083v-0.083h0.084v-0.083h0.083v-0.083h0.083v-0.166h0.083v-0.083h0.084v-0.083h0.083
				v-0.083h0.083v-0.083h0.084v-0.083h0.166v-0.083h0.083v-0.083h0.084v-0.088h0.083v-0.083h0.083V87.3h0.167v-0.083h0.083v-0.085
				h0.167V87.05h0.083v-0.083h0.167v-0.083h0.166v-0.083H86.9v-0.083h0.167v-0.083h0.249v-0.083h0.166V86.47h0.249v-0.085h0.332
				v-0.083h0.332V86.22h0.416v-0.083h0.582v-0.084H89.391z"/>
			<path fill="#FFFFFF" d="M105.07,86.635h0.997v0.083h0.915V86.8h0.498v0.083h0.332v0.083h0.333v0.083h0.248v0.083h0.249v0.083
				h0.167v0.083h0.166v0.083h0.249v0.083h0.167v0.083h0.083v0.083h0.167v0.083h0.166v0.083h0.084v0.083h0.166v0.083h0.083v0.083
				h0.084v0.083h0.166v0.083h0.084v0.083h0.083v0.083h0.083v0.083h0.083v0.083h0.084v0.083h0.083v0.083h0.083v0.083h0.084v0.083
				h0.083v0.083h0.083v0.083h0.083v0.166h0.084v0.083h0.083v0.083h0.083v0.166h0.084v0.083h0.083v0.166h0.083v0.083h0.083v0.166
				h0.084v0.166h0.083v0.167h0.083v0.166h0.083v0.166h0.084v0.249h0.083v0.166h0.083v0.248h0.084v0.249h0.083v0.332h0.083v0.332
				h0.083v0.415h0.084v0.498h0.083v0.831h0.083v2.159h-0.083v0.914h-0.083v0.498h-0.084v0.498h-0.083v0.332h-0.083v0.332h-0.083
				v0.249h-0.084v0.248h-0.083v0.166h-0.083v0.249h-0.084v0.166h-0.083v0.166h-0.083v0.167h-0.083v0.166h-0.084v0.167h-0.083v0.083
				h-0.086v0.167h-0.083v0.083h-0.084v0.167h-0.083v0.083h-0.083v0.083H111.3v0.167h-0.083v0.083h-0.083v0.083h-0.083v0.084h-0.084
				v0.083h-0.083v0.083h-0.083v0.083h-0.084v0.084h-0.083v0.083h-0.083v0.083h-0.083v0.084h-0.084v0.083h-0.083v0.083h-0.167v0.083
				h-0.083v0.084h-0.083v0.083h-0.167v0.083h-0.166v0.084h-0.084v0.083h-0.166v0.083h-0.167v0.083h-0.166v0.084h-0.167v0.083h-0.166
				v0.083h-0.249v0.084h-0.249v0.083h-0.332v0.083h-0.332v0.083h-0.499v0.084h-0.998v0.083h-0.665v-0.083h-1.079v-0.084h-0.582
				v-0.083h-0.416v-0.083h-0.332v-0.083h-0.249v-0.084h-0.249v-0.083h-0.166v-0.083h-0.249v-0.084h-0.167v-0.083h-0.166v-0.083
				h-0.084v-0.083h-0.166v-0.084h-0.167v-0.083h-0.083v-0.083h-0.167v-0.084h-0.083v-0.083h-0.083v-0.083h-0.167v-0.083h-0.083
				v-0.084h-0.083v-0.083h-0.084v-0.083h-0.083v-0.084h-0.083v-0.083h-0.083v-0.083h-0.084v-0.083h-0.083v-0.084h-0.083v-0.166
				h-0.08v-0.084h-0.083v-0.083h-0.083v-0.166h-0.083v-0.084h-0.084v-0.083h-0.082v-0.167h-0.083v-0.166h-0.083v-0.083h-0.084
				v-0.167h-0.083v-0.167H99.09v-0.166h-0.084v-0.166h-0.083V99.58h-0.083v-0.167h-0.083v-0.248h-0.084v-0.249h-0.083v-0.249h-0.083
				v-0.248h-0.084v-0.332h-0.083V97.67h-0.083v-0.499h-0.083v-0.747h-0.084v-2.409h0.084v-0.748h0.083v-0.498h0.083v-0.415h0.083
				v-0.332h0.084v-0.332h0.083v-0.249h0.083v-0.236h0.084v-0.166h0.083v-0.249h0.083v-0.166h0.083v-0.167h0.084V90.29h0.083v-0.166
				h0.083v-0.166h0.084v-0.083h0.083v-0.168h0.083v-0.166h0.083V89.46h0.084v-0.083h0.083v-0.166h0.083v-0.083h0.083v-0.083h0.084
				v-0.085h0.083v-0.083h0.083v-0.166h0.084v-0.083h0.083v-0.083h0.083v-0.083h0.083v-0.083h0.167v-0.083h0.083v-0.085h0.084V88.13
				h0.083v-0.083h0.083v-0.083h0.167v-0.083h0.083v-0.083h0.167v-0.083h0.083v-0.083h0.166v-0.083h0.167v-0.085h0.167v-0.083h0.166
				V87.3h0.167v-0.083h0.249v-0.085h0.166V87.05h0.249v-0.083h0.332v-0.083h0.332v-0.083h0.499v-0.083h0.914v-0.084H105.07z
				 M105.153,90.539v0.083h-0.415v0.083h-0.249v0.083h-0.166v0.083h-0.167v0.083h-0.083v0.083h-0.167v0.083h-0.083v0.083h-0.083
				v0.083h-0.084v0.083h-0.083v0.083h-0.083v0.083h-0.084v0.166h-0.083v0.083h-0.083v0.166h-0.083v0.167h-0.084v0.166h-0.083v0.166
				h-0.083v0.249h-0.084v0.336h-0.083v0.498h-0.083v0.665h-0.083v1.994h0.083v0.747h0.083v0.415h0.083v0.332h0.084v0.248h0.083
				v0.249h0.083v0.166h0.084v0.166h0.083v0.166h0.083v0.083h0.083v0.083h0.084v0.166h0.083v0.083h0.083v0.083h0.084v0.083h0.166
				v0.083h0.083v0.083h0.084v0.083h0.166v0.083h0.167v0.083h0.249v0.083h0.332v0.083h1.245v-0.083h0.332v-0.077h0.167v-0.083h0.166
				v-0.083h0.167v-0.083h0.166v-0.083h0.084v-0.083h0.083V99.18h0.083v-0.083h0.084v-0.083h0.083v-0.083h0.083v-0.083h0.083v-0.167
				h0.084v-0.166h0.083v-0.166h0.083v-0.166h0.084v-0.249h0.083v-0.248h0.083v-0.332h0.083v-0.498h0.084v-0.914h0.083v-1.744h-0.083
				v-0.747h-0.084v-0.42h-0.083v-0.332h-0.083v-0.249h-0.083v-0.166h-0.084v-0.166h-0.083v-0.167h-0.083v-0.166h-0.084v-0.083
				h-0.083v-0.167h-0.083v-0.083h-0.083v-0.083h-0.084v-0.083h-0.083v-0.085h-0.083V91.12h-0.084v-0.083h-0.166v-0.083h-0.083
				v-0.083h-0.167v-0.083h-0.249v-0.083h-0.249v-0.083H105.9V90.54h-0.747V90.539z"/>
		</g>
		<g>
			<g>
				<defs>
					<circle id="SVGID_1_" cx="100" cy="100" r="101"/>
				</defs>
				<clipPath id="SVGID_2_">
					<use xlink:href="#SVGID_1_"  overflow="visible"/>
				</clipPath>
				<g clip-path="url(#SVGID_2_)">
					<g>
						<path fill="#FFFFFF" d="M188.625,33.297c0,0-5.917,4.64-21.175-0.346c-9.702-3.171-29.525-9.394-40.643-1.698
							c0,0-3.947,6.252-6.119,8.945s-4.069,3.049-4.262,10.079c0,0-7.864,3.764-5.142,11.539c0,0-11.996,1.481-17.659,1.488
							c-5.663,0.006-19.032-1.975-19.388,3.343c-0.357,5.318,14.3,6.279,22.896,6.38s19.778-2.262,29.347,0.645
							c9.569,2.908,12.617,6.431,9.915,13.155c-2.702,6.725-8.511,12.055-7.46,19.557c1.051,7.501,4.072,12.089,5.638,8.521
							c1.566-3.567,3.949-13.928,9.811-21.177c5.862-7.249,14.926-15.519,18.588-20.003c9.082-11.119,29.805-6.442,42.186-6.629"/>
					</g>
					<g>
						<g>
							<path id="SVGID_3_" fill="#FFFFFF" d="M6.688,158.746c0,0,5.917-4.64,21.175,0.346c9.702,3.171,29.525,9.394,40.643,1.698
								c0,0,3.947-6.252,6.119-8.945c2.172-2.693,4.069-3.049,4.262-10.079c0,0,7.864-3.764,5.142-11.539
								c0,0,11.996-1.481,17.659-1.488c5.663-0.006,19.032,1.975,19.388-3.343c0.357-5.318-14.3-6.279-22.896-6.38
								s-19.778,2.262-29.347-0.645c-9.568-2.908-12.617-6.431-9.915-13.155c2.702-6.725,8.511-12.055,7.46-19.557
								c-1.052-7.501-4.072-12.089-5.638-8.521c-1.565,3.567-3.949,13.928-9.811,21.177c-5.862,7.249-14.926,15.519-18.588,20.003
								c-9.082,11.119-29.805,6.442-42.186,6.629"/>
						</g>
					</g>
				</g>
			</g>
		</g>
	</g>
</g>
</svg>
